<svg width="34" height="35" viewBox="0 0 34 35" fill="none" xmlns="http://www.w3.org/2000/svg">
<circle cx="17" cy="17.9355" r="17" fill="#75A62A"/>
<path d="M18.8537 9.01504C13.9488 9.01504 10 12.5431 10 18.3002C10 24.2045 13.8769 26.9974 18.1124 26.9974C19.6762 27.0334 21.226 26.6891 22.6345 25.9929C23.0415 25.7481 23.1134 25.5522 22.8259 25.1594C22.3566 24.5057 21.9481 23.8084 21.6058 23.0767C21.4996 22.8199 21.406 22.6351 21.1795 22.6351C21.0786 22.6399 20.9795 22.6649 20.8879 22.7087C20.2085 23.0158 19.4766 23.1825 18.7342 23.199C16.0298 23.199 14.0441 21.8025 13.9705 18.2993C13.8987 14.7225 15.861 12.8605 18.7802 12.8605C19.7741 12.8095 20.7677 12.9679 21.6994 13.326C21.7828 13.3611 21.8725 13.3777 21.9626 13.3748C22.154 13.3748 22.2969 13.2037 22.4172 13.0325C22.7539 12.5542 22.9379 11.9809 22.9438 11.3913C22.9521 11.0549 22.8775 10.7218 22.7269 10.4227C22.5763 10.1236 22.3546 9.86811 22.0821 9.67991C21.0854 9.15917 19.9677 8.93028 18.852 9.01846" fill="white"/>
</svg>
